<svg width="32" height="32" viewBox="0 0 32 32" fill="none" xmlns="http://www.w3.org/2000/svg">
<g id="Icon/Outline/clipboard-check">
<path id="Icon" d="M12.7071 17.9687C12.3166 17.5781 11.6834 17.5781 11.2929 17.9687C10.9024 18.3592 10.9024 18.9923 11.2929 19.3829L12.7071 17.9687ZM14.6667 21.3424L13.9595 22.0495C14.3501 22.4401 14.9832 22.4401 15.3738 22.0495L14.6667 21.3424ZM20.7071 16.7162C21.0976 16.3257 21.0976 15.6925 20.7071 15.302C20.3166 14.9115 19.6834 14.9115 19.2929 15.302L20.7071 16.7162ZM24.3333 9.34243V25.3424H26.3333V9.34243H24.3333ZM22.6667 27.0091H9.33332V29.0091H22.6667V27.0091ZM7.66666 25.3424V9.34243H5.66666V25.3424H7.66666ZM9.33332 7.67576H12V5.67576H9.33332V7.67576ZM20 7.67576H22.6667V5.67576H20V7.67576ZM9.33332 27.0091C8.41285 27.0091 7.66666 26.2629 7.66666 25.3424H5.66666C5.66666 27.3675 7.30828 29.0091 9.33332 29.0091V27.0091ZM24.3333 25.3424C24.3333 26.2629 23.5871 27.0091 22.6667 27.0091V29.0091C24.6917 29.0091 26.3333 27.3675 26.3333 25.3424H24.3333ZM26.3333 9.34243C26.3333 7.31738 24.6917 5.67576 22.6667 5.67576V7.67576C23.5871 7.67576 24.3333 8.42195 24.3333 9.34243H26.3333ZM7.66666 9.34243C7.66666 8.42195 8.41285 7.67576 9.33332 7.67576V5.67576C7.30828 5.67576 5.66666 7.31738 5.66666 9.34243H7.66666ZM11.2929 19.3829L13.9595 22.0495L15.3738 20.6353L12.7071 17.9687L11.2929 19.3829ZM15.3738 22.0495L20.7071 16.7162L19.2929 15.302L13.9595 20.6353L15.3738 22.0495ZM14.6667 5.00909H17.3333V3.00909H14.6667V5.00909ZM17.3333 8.34243H14.6667V10.3424H17.3333V8.34243ZM14.6667 8.34243C13.7462 8.34243 13 7.59624 13 6.67576H11C11 8.70081 12.6416 10.3424 14.6667 10.3424V8.34243ZM19 6.67576C19 7.59624 18.2538 8.34243 17.3333 8.34243V10.3424C19.3584 10.3424 21 8.70081 21 6.67576H19ZM17.3333 5.00909C18.2538 5.00909 19 5.75529 19 6.67576H21C21 4.65072 19.3584 3.00909 17.3333 3.00909V5.00909ZM14.6667 3.00909C12.6416 3.00909 11 4.65072 11 6.67576H13C13 5.75529 13.7462 5.00909 14.6667 5.00909V3.00909Z" fill="#827D89"/>
</g>
</svg>
