<svg width="32" height="32" viewBox="0 0 32 32" fill="none" xmlns="http://www.w3.org/2000/svg">
<g id="Icon/Solid/home">
<path id="Icon" d="M17.1314 3.67772C16.5065 3.05289 15.4935 3.05289 14.8686 3.67772L3.66864 14.8777C3.0438 15.5026 3.0438 16.5156 3.66864 17.1405C4.29348 17.7653 5.30654 17.7653 5.93138 17.1405L6.40001 16.6718V27.2091C6.40001 28.0928 7.11636 28.8091 8.00001 28.8091H11.2C12.0837 28.8091 12.8 28.0928 12.8 27.2091V24.0091C12.8 23.1254 13.5164 22.4091 14.4 22.4091H17.6C18.4837 22.4091 19.2 23.1254 19.2 24.0091V27.2091C19.2 28.0928 19.9164 28.8091 20.8 28.8091H24C24.8837 28.8091 25.6 28.0928 25.6 27.2091V16.6718L26.0686 17.1405C26.6935 17.7653 27.7065 17.7653 28.3314 17.1405C28.9562 16.5156 28.9562 15.5026 28.3314 14.8777L17.1314 3.67772Z" fill="#6A3EA1"/>
</g>
</svg>
