<svg width="160" height="160" viewBox="0 0 160 160" fill="none" xmlns="http://www.w3.org/2000/svg">
<g id="Illustration">
<g id="background">
<g id="ground">
<g id="Group">
<g id="Group_2">
<path id="Vector" d="M20.8803 150.107C27.2537 146.72 34.6403 147.653 41.4937 148.667C48.6137 149.733 55.7603 150.587 62.9603 151.12C70.427 151.68 78.0537 152.133 85.547 151.707C92.8003 151.307 99.7337 148.987 106.88 147.84C115.254 146.507 123.76 146.4 132.16 147.493C132.294 147.52 132.294 147.307 132.16 147.28C124.694 146.32 117.094 146.267 109.627 147.227C102.134 148.187 94.907 150.693 87.387 151.36C79.8403 152.027 72.0803 151.52 64.5337 151.013C56.827 150.48 49.2003 149.573 41.5737 148.453C34.667 147.44 27.227 146.507 20.827 149.92C20.667 150 20.7737 150.16 20.8803 150.107Z" fill="#180E25"/>
</g>
</g>
<g id="Group_3">
<g id="Group_4">
<path id="Vector_2" d="M119.839 150.987C132.266 147.787 144.933 154.56 157.333 151.147C157.466 151.12 157.413 150.907 157.279 150.96C144.879 154.373 132.213 147.6 119.786 150.8C119.653 150.827 119.706 151.013 119.839 150.987Z" fill="#180E25"/>
</g>
</g>
<g id="Group_5">
<g id="Group_6">
<path id="Vector_3" d="M12.826 153.6C26.586 150.4 40.186 158.24 53.9726 155.36C54.106 155.333 54.0526 155.147 53.9193 155.173C40.1326 158.08 26.5593 150.24 12.7726 153.413C12.666 153.413 12.7193 153.627 12.826 153.6Z" fill="#180E25"/>
</g>
</g>
</g>
<g id="plants">
<path id="Vector_4" d="M122.239 155.52C121.866 154.133 121.599 152.613 121.493 151.013C120.773 140.747 126.853 132.747 129.599 129.547C129.813 131.28 129.893 133.173 129.786 135.2C129.306 144.533 125.119 151.6 122.239 155.52Z" fill="#F7F6D4"/>
<path id="Vector_5" d="M122.239 155.52C120.639 154 118.666 151.734 117.119 148.614C113.599 141.627 114.399 134.907 114.879 132.214C116.266 134.347 117.706 136.96 118.933 140.054C121.359 146.107 122.079 151.574 122.239 155.52Z" fill="#F7F6D4"/>
<path id="Vector_6" d="M49.0929 131.52C48.7995 133.653 48.6929 136.453 49.3062 139.627C50.8262 147.493 55.7595 152.427 57.8662 154.32C58.0262 152.24 57.9729 149.68 57.4395 146.853C55.9195 139.093 51.4395 133.893 49.0929 131.52Z" fill="#F7F6D4"/>
<path id="Vector_7" d="M57.8661 154.32C56.3194 153.813 56.9061 146.32 58.9594 140.293C60.3461 136.187 62.3194 133.093 63.7861 131.093C64.6394 134.32 65.8928 140.933 62.9061 147.76C61.6261 150.64 59.0928 154.72 57.8661 154.32Z" fill="#F7F6D4"/>
<g id="Group_7">
<g id="Group_8">
<path id="Vector_8" d="M43.4392 136.853C43.9459 136.853 43.9459 136.053 43.4392 136.053C42.9059 136.053 42.9059 136.853 43.4392 136.853Z" fill="#EFEEF0"/>
</g>
</g>
<g id="Group_9">
<g id="Group_10">
<path id="Vector_9" d="M51.0926 136.8C52.5593 142.587 54.6126 148.213 57.226 153.573C57.2793 153.68 57.466 153.6 57.386 153.467C54.7726 148.107 52.7193 142.507 51.2793 136.747C51.2526 136.64 51.066 136.693 51.0926 136.8Z" fill="#565510"/>
</g>
</g>
<g id="Group_11">
<g id="Group_12">
<path id="Vector_10" d="M58.0791 153.467C59.7058 149.013 61.3591 144.56 63.0658 140.133C63.1191 140 62.9058 139.973 62.8791 140.08C61.1725 144.507 59.4925 148.96 57.8925 153.413C57.8391 153.547 58.0258 153.6 58.0791 153.467Z" fill="#565510"/>
</g>
</g>
<g id="Group_13">
<g id="Group_14">
<path id="Vector_11" d="M115.867 138.027C117.12 143.573 119.04 148.907 121.547 154C121.6 154.107 121.787 154.027 121.707 153.893C119.2 148.827 117.307 143.467 116.054 137.947C116.054 137.867 115.84 137.92 115.867 138.027Z" fill="#565510"/>
</g>
</g>
<g id="Group_15">
<g id="Group_16">
<path id="Vector_12" d="M125.733 140.187C125.066 145.227 123.893 150.16 122.266 154.96C122.213 155.093 122.426 155.147 122.453 155.013C124.079 150.213 125.226 145.28 125.919 140.24C125.919 140.133 125.733 140.08 125.733 140.187Z" fill="#565510"/>
</g>
</g>
</g>
</g>
<g id="body_2">
<g id="head">
<path id="Vector_13" d="M104.933 29.7334C104.56 29.5467 102.266 28.4001 102.373 27.0667C102.48 25.6001 105.546 24.7467 106.826 24.4001C108.24 24.0001 110.053 23.8401 110.24 23.8401C110.586 23.8134 110.72 23.8134 110.8 23.8134C111.306 23.8401 112.666 23.8934 113.813 24.8534C114.56 25.4934 114.906 26.2667 115.12 26.7467C115.52 27.6267 115.626 28.4267 115.653 28.9334C114 29.2801 112.053 29.6001 109.893 29.7334C108.053 29.8667 106.4 29.8401 104.933 29.7334Z" fill="#180E25"/>
<path id="Vector_14" d="M117.733 27.0401C116.32 29.5467 113.333 30.9601 110.56 30.4801C107.52 29.9734 105.146 27.3601 104.986 24.9067C104.96 24.5067 104.88 23.1467 105.706 22.4267C106.693 21.5467 107.946 22.5334 109.573 21.7867C111.173 21.0667 110.853 19.7067 112.24 19.0401C113.92 18.2401 116.72 19.0934 118 21.1201C119.653 23.6801 117.973 26.6401 117.733 27.0401Z" fill="#180E25"/>
<path id="Vector_15" d="M104.827 29.5467C104.827 29.8667 104.88 30.2934 104.96 30.8001C105.067 31.3067 105.2 32.1067 105.653 32.8534C106.507 34.32 108.053 34.8534 108.453 34.9867C109.627 35.36 110.613 35.1734 111.067 35.0934C112.587 34.8267 113.573 34.0267 113.867 33.76C114.08 33.5734 114.747 32.9867 115.227 32.0001C115.467 31.5201 115.787 30.8801 115.787 30.0001C115.787 29.5734 115.707 29.2001 115.627 28.9601C115.413 29.0401 115.04 29.1201 114.613 29.0134C114.213 28.9334 113.947 28.7201 113.787 28.5867C112.613 27.6534 112.48 26.7467 111.493 26.1867C111.333 26.0801 110.507 25.6267 109.493 25.7867C108.56 25.9201 107.947 26.5067 107.733 26.7201C107.44 26.9867 107.147 27.4667 106.533 28.4267C106.213 28.9067 105.973 29.3067 105.493 29.4667C105.253 29.5734 105.013 29.5734 104.827 29.5467Z" fill="white"/>
<g id="Group_17">
<g id="Group_18">
<path id="Vector_16" d="M115.707 30.0001C115.333 32.9601 112.827 35.2001 109.787 35.0934C107.253 34.9868 105.44 33.2268 105.067 30.7734C105.04 30.6401 104.853 30.6934 104.88 30.8268C105.28 33.5468 107.44 35.3868 110.213 35.3068C113.227 35.2001 115.52 32.9601 115.893 30.0268C115.92 29.8668 115.707 29.8668 115.707 30.0001Z" fill="#180E25"/>
</g>
</g>
<g id="Group_19">
<g id="Group_20">
<path id="Vector_17" d="M104.933 29.5467C105.28 26.64 107.333 24.24 110.347 23.9467C113.387 23.68 115.333 26.08 115.547 28.96C115.547 29.0934 115.76 29.0934 115.76 28.96C115.547 25.9734 113.52 23.4934 110.373 23.76C107.253 24.0267 105.12 26.5334 104.773 29.5467C104.72 29.68 104.933 29.68 104.933 29.5467Z" fill="#180E25"/>
</g>
</g>
<g id="Group_21">
<g id="Group_22">
<path id="Vector_18" d="M115.68 29.0401C115.68 29.0401 115.707 29.0401 115.68 29.0401C115.813 28.9868 115.707 28.8001 115.6 28.8535C115.6 28.8535 115.6 28.8535 115.573 28.8535C115.467 28.9335 115.573 29.0935 115.68 29.0401Z" fill="#180E25"/>
</g>
</g>
<g id="Group_23">
<g id="Group_24">
<path id="Vector_19" d="M104.827 29.6268C105.52 29.8401 105.947 29.3068 106.347 28.8001C107.333 27.5735 108.027 25.8935 109.867 25.8402C112.427 25.7602 113.093 29.8135 115.707 29.0401C115.84 29.0135 115.787 28.8001 115.653 28.8535C113.813 29.3868 113.067 27.3068 111.947 26.3735C111.307 25.8402 110.507 25.6002 109.68 25.6802C108.933 25.7602 108.293 26.0802 107.76 26.6135C107.093 27.2802 105.973 29.7868 104.907 29.4668C104.747 29.4135 104.693 29.6001 104.827 29.6268Z" fill="#180E25"/>
</g>
</g>
<g id="Group_25">
<g id="Group_26">
<path id="Vector_20" d="M109.68 27.7601C109.546 28.5334 108.96 31.2001 110.133 31.4934C110.266 31.5201 110.32 31.3334 110.186 31.3068C109.253 31.0668 109.786 28.4268 109.866 27.8134C109.893 27.7068 109.706 27.6268 109.68 27.7601Z" fill="#180E25"/>
</g>
</g>
<g id="Group_27">
<g id="Group_28">
<path id="Vector_21" d="M110.213 32.4001C111.093 32.5868 112.053 31.7601 112.213 30.9068C112.24 30.7734 112.053 30.7201 112.026 30.8534C111.893 31.5734 111.04 32.3468 110.266 32.1868C110.133 32.1868 110.08 32.3734 110.213 32.4001Z" fill="#180E25"/>
</g>
</g>
<path id="Vector_22" d="M107.893 29.4401C108.04 29.4401 108.159 29.2729 108.159 29.0668C108.159 28.8606 108.04 28.6934 107.893 28.6934C107.746 28.6934 107.626 28.8606 107.626 29.0668C107.626 29.2729 107.746 29.4401 107.893 29.4401Z" fill="#180E25"/>
<path id="Vector_23" d="M111.867 29.3067C112.014 29.3067 112.133 29.1396 112.133 28.9334C112.133 28.7272 112.014 28.5601 111.867 28.5601C111.719 28.5601 111.6 28.7272 111.6 28.9334C111.6 29.1396 111.719 29.3067 111.867 29.3067Z" fill="#180E25"/>
<g id="Group_29">
<g id="Group_30">
<path id="Vector_24" d="M107.627 28.1334C107.707 28.0001 107.813 27.8934 107.947 27.8134C108.16 27.6801 108.293 27.7334 108.507 27.8668C108.613 27.9468 108.72 27.7601 108.613 27.7068C108.427 27.5734 108.213 27.4934 107.973 27.6001C107.76 27.7068 107.573 27.8668 107.44 28.0534C107.387 28.1334 107.547 28.2401 107.627 28.1334Z" fill="#180E25"/>
</g>
</g>
<g id="Group_31">
<g id="Group_32">
<path id="Vector_25" d="M111.414 27.7333C111.601 27.5733 111.841 27.44 112.081 27.5466C112.267 27.6266 112.347 27.84 112.454 28.0266C112.507 28.1333 112.694 28.0533 112.614 27.92C112.481 27.68 112.347 27.3866 112.054 27.3333C111.761 27.2533 111.494 27.4133 111.281 27.6C111.174 27.68 111.334 27.84 111.414 27.7333Z" fill="#180E25"/>
</g>
</g>
<path id="Vector_26" d="M109.093 23.9467C109.28 23.7067 109.947 23.0134 111.04 22.8534C112.827 22.5867 114.053 24.08 114.107 24.16C113.653 23.92 112.693 23.4667 111.44 23.44C110.373 23.44 109.547 23.7334 109.093 23.9467Z" fill="white"/>
</g>
<g id="hand_right">
<path id="Vector_27" d="M61.8924 27.5734C62.5858 26.9068 63.2524 26.5068 63.7324 26.2934C64.3191 26.0001 64.8791 25.7334 65.6524 25.7868C66.1858 25.8134 66.6391 25.9734 66.9058 26.1068C67.2524 28.2934 67.6791 30.5601 68.1324 32.8534C69.0124 37.1734 69.9991 41.2534 71.0658 45.0934C71.9458 44.6401 73.1724 44.0001 74.6658 43.2534C79.0124 41.0668 82.9058 39.2268 86.1591 37.7334C87.7591 36.9868 89.8391 36.0801 92.2924 35.0134C93.7591 37.0134 94.0791 38.6934 94.1591 39.7334C94.6658 46.9068 85.0391 53.6268 77.8391 54.8001C75.5724 55.1734 73.0124 55.0668 72.7991 55.0668C68.5058 54.9068 65.5191 53.7334 64.8258 53.4668C63.7591 53.0401 62.9324 52.6134 62.3191 52.2668C61.9724 51.0401 61.5724 49.3334 61.2791 47.2801C61.0124 45.2801 60.9591 43.8134 60.9058 41.9468C60.7991 38.1868 61.0124 35.1201 61.1724 33.2801C61.3058 31.7334 61.5191 29.7868 61.8924 27.5734Z" fill="#6A3EA1"/>
<path id="Vector_28" d="M59.92 14.6133C59.76 14.3467 59.4934 14 59.28 14.0267C59.1467 14.0533 59.04 14.2667 58.96 14.6667C58.7734 15.6533 58.9067 16.48 58.9067 16.5867C59.1467 17.9733 59.4134 18.72 59.4134 18.72C59.92 20.08 60.9067 22.5867 62.2667 25.8133C62.2667 26.2933 62.2667 26.7733 62.2667 27.2533C62.8534 26.72 63.3867 26.4 63.7867 26.1867C64.2667 25.92 64.6667 25.7333 65.2 25.7067C65.68 25.68 66.08 25.8133 66.32 25.8933C66 25.3867 66 24.9867 66.0267 24.7467C66.0534 24.5333 66.1334 24.4267 66.6134 23.4933C66.9867 22.8 67.04 22.6933 67.0934 22.56C67.3334 22 67.4667 21.7333 67.4667 21.3867C67.4667 20.88 67.2534 20.2133 66.9067 20.1867C66.8534 20.1867 66.64 20.1867 66.3734 20.6133C65.9734 18.7733 65.8934 17.2533 65.8934 16.1867C65.8934 15.3867 65.9467 14.24 65.44 12.88C65.0134 11.7067 64.5334 11.4133 64.2667 11.3067C63.8934 11.1467 63.4934 11.2 62.6934 11.3067C61.9467 11.4133 61.6 11.4667 61.3334 11.7333C61.28 11.8133 61.2267 11.8933 61.12 12.9067C61.0134 14.08 61.0134 14.6667 61.0134 15.04C61.0134 15.04 61.0134 15.2267 61.0134 15.3867C61.04 15.92 61.1467 16.88 61.4934 18.2933C61.1734 17.1733 60.56 15.6267 59.92 14.6133Z" fill="white"/>
<g id="Group_33">
<g id="Group_34">
<path id="Vector_29" d="M66.426 20.8534C66.5327 20.6934 66.6394 20.5601 66.7994 20.4534C66.9594 20.3468 67.386 20.1601 67.386 20.5068C67.386 20.6401 67.5994 20.6401 67.5994 20.5068C67.5994 20.2134 67.3327 20.0534 67.066 20.1068C66.7194 20.1601 66.4527 20.4801 66.266 20.7468C66.186 20.8534 66.346 20.9601 66.426 20.8534Z" fill="#180E25"/>
</g>
</g>
<g id="Group_35">
<g id="Group_36">
<path id="Vector_30" d="M67.493 21.1734C67.333 22 67.0397 22.7734 66.5863 23.4667C66.2663 23.9734 65.9463 24.4267 65.973 25.0667C65.973 25.2 66.1863 25.2 66.1863 25.0667C66.133 24.24 66.7997 23.6 67.1197 22.9067C67.3863 22.3734 67.5463 21.7867 67.6797 21.2C67.7063 21.12 67.5197 21.0667 67.493 21.1734Z" fill="#180E25"/>
</g>
</g>
<g id="Group_37">
<g id="Group_38">
<path id="Vector_31" d="M62.2127 25.4401C61.386 23.5201 60.5593 21.5734 59.8393 19.6001C59.546 18.7734 59.2793 17.9201 59.1193 17.0401C59.0127 16.5068 58.8793 15.9201 58.9593 15.3868C59.0393 14.8268 59.2793 13.5468 59.8393 14.6668C59.8927 14.7734 60.0793 14.6934 59.9993 14.5601C59.8393 14.2668 59.706 14.0801 59.4393 13.8401C59.386 13.7868 59.3327 13.8134 59.2793 13.8668C58.266 15.3601 58.906 17.3868 59.4127 18.9601C60.1327 21.2001 61.0927 23.3601 62.026 25.5201C62.0793 25.6534 62.266 25.5468 62.2127 25.4401Z" fill="#180E25"/>
</g>
</g>
<g id="Group_39">
<g id="Group_40">
<path id="Vector_32" d="M60.24 15.5467C60.6133 16.4267 61.0133 17.2801 61.3867 18.1601C61.44 18.2667 61.6 18.1867 61.5467 18.0534C61.1733 17.1734 60.7733 16.3201 60.4 15.4401C60.3467 15.3334 60.1866 15.4401 60.24 15.5467Z" fill="#180E25"/>
</g>
</g>
<g id="Group_41">
<g id="Group_42">
<path id="Vector_33" d="M61.6004 17.2534C61.4137 15.5467 60.9604 13.2001 61.6537 11.5734C61.707 11.4667 61.5204 11.4134 61.467 11.5201C60.7737 13.1734 61.227 15.5201 61.4137 17.2534C61.4137 17.3601 61.6004 17.3867 61.6004 17.2534Z" fill="#180E25"/>
</g>
</g>
<g id="Group_43">
<g id="Group_44">
<path id="Vector_34" d="M61.8391 11.7334C62.3191 13.4934 62.6658 15.28 62.9591 17.0667C62.9858 17.2 63.1725 17.1467 63.1458 17.0134C62.8791 15.2 62.5058 13.44 62.0258 11.68C61.9991 11.5734 61.8125 11.6267 61.8391 11.7334Z" fill="#180E25"/>
</g>
</g>
<g id="Group_45">
<g id="Group_46">
<path id="Vector_35" d="M63.0398 11.5467C64.0265 12.9067 64.2131 15.1467 64.5065 16.7734C64.5331 16.9067 64.7198 16.8534 64.6931 16.7201C64.3998 15.0401 64.2398 12.8534 63.1998 11.4401C63.1465 11.3334 62.9598 11.4401 63.0398 11.5467Z" fill="#180E25"/>
</g>
</g>
<g id="Group_47">
<g id="Group_48">
<path id="Vector_36" d="M65.4395 12.9334C65.6528 14.0267 65.8128 15.12 65.8662 16.2134C65.8662 16.3467 66.0795 16.3467 66.0795 16.2134C65.9995 15.0934 65.8662 13.9734 65.6262 12.88C65.5995 12.7734 65.4128 12.8267 65.4395 12.9334Z" fill="#180E25"/>
</g>
</g>
<g id="Group_49">
<g id="Group_50">
<path id="Vector_37" d="M92.2662 34.9334C85.0662 38.0268 77.9729 41.4134 71.0129 45.0134C70.9062 45.0668 71.0129 45.2534 71.1196 45.1734C78.0796 41.5468 85.1729 38.1868 92.3729 35.0934C92.4796 35.0668 92.3729 34.8801 92.2662 34.9334Z" fill="#180E25"/>
</g>
</g>
<g id="Group_51">
<g id="Group_52">
<path id="Vector_38" d="M71.0661 45.0134C69.4128 38.7734 68.0528 32.4534 66.9861 26.0534C66.9595 25.9201 66.7728 25.9734 66.7995 26.1068C67.8661 32.4801 69.2261 38.8001 70.8795 45.0668C70.9061 45.2001 71.0928 45.1468 71.0661 45.0134Z" fill="#180E25"/>
</g>
</g>
<g id="Group_53">
<g id="Group_54">
<path id="Vector_39" d="M62.3994 27.3601C63.5461 26.4534 64.8528 25.5201 66.3728 26.0268C66.5061 26.0801 66.5594 25.8668 66.4261 25.8401C64.8261 25.3068 63.4661 26.2668 62.2661 27.2001C62.1328 27.2801 62.2928 27.4401 62.3994 27.3601Z" fill="#180E25"/>
</g>
</g>
<g id="Group_55">
<g id="Group_56">
<path id="Vector_40" d="M61.7593 28.0267C60.6127 34.9067 60.506 41.92 61.386 48.8267C61.4127 48.96 61.5993 48.96 61.5993 48.8267C60.7193 41.92 60.826 34.9334 61.9727 28.08C61.9727 27.9467 61.786 27.8934 61.7593 28.0267Z" fill="#180E25"/>
</g>
</g>
<g id="Group_57">
<g id="Group_58">
<path id="Vector_41" d="M62.7467 52.6132C70.4267 56.5599 79.2534 55.4132 87.04 52.4266C87.1467 52.3732 87.12 52.1866 86.9867 52.2399C79.2534 55.2266 70.48 56.3732 62.8534 52.4532C62.7467 52.3732 62.64 52.5599 62.7467 52.6132Z" fill="#180E25"/>
</g>
</g>
</g>
<g id="torso">
<path id="Vector_42" d="M75.1205 50.5072C78.1071 47.8672 84.3738 42.3205 87.3605 39.6805C87.9738 39.1472 91.8671 35.7072 92.4538 35.1738C94.6405 34.8005 97.6805 34.3472 101.334 33.9205C106.587 33.3072 110.294 32.9072 114.907 33.0405C117.894 33.1205 122.027 33.4672 126.96 34.5605C127.014 36.1338 126.987 38.2938 126.56 40.8538C126.32 42.4005 125.387 47.4938 122 53.2538C121.04 54.8805 119.467 57.5205 117.04 59.8138C108.88 67.5472 96.7205 66.1072 96.1338 66.0272C82.2138 64.1872 75.6805 51.6272 75.1205 50.5072Z" fill="#6A3EA1"/>
<g id="Group_59">
<g id="Group_60">
<path id="Vector_43" d="M75.1999 50.5868C79.6532 46.6401 84.1065 42.6935 88.5599 38.7468C88.6665 38.6668 88.5065 38.5335 88.4265 38.6135C83.9732 42.5601 79.5199 46.5068 75.0665 50.4535C74.9599 50.5068 75.0932 50.6668 75.1999 50.5868Z" fill="#180E25"/>
</g>
</g>
<g id="Group_61">
<g id="Group_62">
<path id="Vector_44" d="M92.4794 35.2801C102.079 33.8401 111.759 32.4534 121.466 33.5467C121.599 33.5734 121.599 33.3601 121.466 33.3334C111.759 32.2134 102.026 33.6267 92.4261 35.0667C92.2927 35.1201 92.346 35.3067 92.4794 35.2801Z" fill="#180E25"/>
</g>
</g>
<g id="Group_63">
<g id="Group_64">
<path id="Vector_45" d="M126.693 39.28C125.68 46.96 122.267 54.1333 116.96 59.76C116.88 59.8667 117.013 60 117.093 59.8933C122.453 54.2133 125.867 46.9867 126.907 39.2533C126.907 39.1467 126.72 39.1467 126.693 39.28Z" fill="#180E25"/>
</g>
</g>
<g id="Group_65">
<g id="Group_66">
<path id="Vector_46" d="M95.1467 39.0401C101.44 38.2934 107.787 38.0801 114.133 38.4001C114.64 38.4267 114.64 37.6267 114.133 37.6001C107.787 37.2801 101.44 37.4934 95.1467 38.2401C94.64 38.2934 94.6133 39.0934 95.1467 39.0401Z" fill="#EFE9F7"/>
</g>
</g>
<g id="Group_67">
<g id="Group_68">
<path id="Vector_47" d="M91.4139 43.0933C98.7739 42.48 106.134 42.4267 113.494 42.9867C114.001 43.0133 114.001 42.2133 113.494 42.1867C106.134 41.6533 98.7472 41.68 91.4139 42.2933C90.9072 42.32 90.9072 43.12 91.4139 43.0933Z" fill="#EFE9F7"/>
</g>
</g>
</g>
<g id="leg">
<path id="Vector_48" d="M67.786 40.8273C69.8927 41.2273 72.8793 41.8673 76.346 42.8806C82.2927 44.5873 86.6393 46.4806 91.0927 48.4006C94.186 49.7339 98.1593 51.5739 102.719 53.9739C102.399 55.2539 101.893 56.6673 101.119 58.0806C97.466 64.6406 90.266 66.6406 88.1327 67.1739C86.7727 66.4273 84.6393 65.2806 81.9993 63.9473C74.666 60.2406 72.186 59.6273 68.8527 57.0939C67.0927 55.7339 64.666 53.5473 62.3727 50.0006C64.186 46.9339 65.9727 43.8939 67.786 40.8273Z" fill="white"/>
<g id="Group_69">
<g id="Group_70">
<path id="Vector_49" d="M69.2252 40.8801C80.0785 43.8401 90.6118 47.8934 100.612 53.0134C100.718 53.0667 100.825 52.9067 100.718 52.8534C90.6918 47.7334 80.1585 43.6534 69.2785 40.6934C69.1451 40.6667 69.0918 40.8534 69.2252 40.8801Z" fill="#180E25"/>
</g>
</g>
<g id="Group_71">
<g id="Group_72">
<path id="Vector_50" d="M66.2924 55.9467C73.1191 59.3067 79.8658 62.8534 86.5058 66.5601C86.6124 66.6134 86.7191 66.4534 86.6124 66.4001C79.9724 62.6934 73.2257 59.1467 66.3991 55.7867C66.2924 55.7067 66.1857 55.8934 66.2924 55.9467Z" fill="#180E25"/>
</g>
</g>
</g>
</g>
<g id="trophy_1_">
<g id="trophy">
<path id="Vector_51" d="M114.32 153.733L66.6399 154.373C66.6399 145.013 85.1732 156.267 85.1732 145.12C85.1732 136.987 83.9466 125.413 83.4132 123.947C88.1066 123.947 91.9999 123.947 96.6932 123.947C96.1866 124.96 95.5732 135.493 95.5732 145.227C95.5732 155.573 114.32 144.747 114.32 153.733Z" fill="#C2C018"/>
<path id="Vector_52" d="M52.7999 74.5599L41.4399 79.1733C40.4533 79.5733 39.8666 80.7999 40.0799 82.0533L43.5999 104.32C43.7866 105.493 44.6133 106.347 45.5999 106.373L57.1999 106.48C58.4266 106.48 59.3599 105.2 59.2533 103.707C59.1466 102.373 58.2133 101.387 57.1199 101.44L48.6933 101.893C47.6799 101.947 46.7733 101.067 46.5866 99.8399L44.3733 85.3333C44.1599 84.0266 44.8266 82.7466 45.8933 82.3999L54.1066 79.8399C55.3066 79.4666 55.9733 77.8666 55.4933 76.4533L55.3599 76.0266C54.9333 74.7999 53.8133 74.1599 52.7999 74.5599Z" fill="#C2C018"/>
<path id="Vector_53" d="M124.267 74.5599L139.093 79.1733C140.373 79.5733 141.147 80.7999 140.88 82.0533L136.293 104.32C136.053 105.493 134.96 106.347 133.707 106.373L118.587 106.48C117.013 106.48 115.76 105.2 115.92 103.707C116.053 102.373 117.28 101.387 118.693 101.44L129.68 101.893C131.013 101.947 132.16 101.067 132.427 99.8399L135.307 85.3333C135.573 84.0266 134.693 82.7466 133.333 82.3999L122.64 79.8399C121.067 79.4666 120.213 77.8666 120.827 76.4533L121.013 76.0266C121.493 74.7999 122.933 74.1599 124.267 74.5599Z" fill="#C2C018"/>
<path id="Vector_54" d="M111.147 129.173H65.4134C61.4934 129.173 58.2134 126.24 57.7601 122.373L50.8268 63.4665C50.2934 58.8799 53.8668 54.8532 58.4801 54.8532H120.427C125.173 54.8532 128.773 59.0932 128.053 63.7599L118.747 122.667C118.16 126.4 114.933 129.173 111.147 129.173Z" fill="#DEDC52"/>
</g>
<g id="_x31_">
<g id="Group_73">
<g id="Group_74">
<path id="Vector_55" d="M79.7598 87.3334C80.9865 87.6801 82.2132 88.0267 83.4398 88.3734C83.9465 88.5067 84.1598 87.7334 83.6532 87.6001C82.4265 87.2534 81.1998 86.9067 79.9732 86.5601C79.4665 86.4267 79.2532 87.2001 79.7598 87.3334Z" fill="#565510"/>
</g>
</g>
<g id="Group_75">
<g id="Group_76">
<path id="Vector_56" d="M84.2393 87.9999C85.4659 86.3465 86.6926 84.7199 87.9193 83.0665C88.2393 82.6665 87.5459 82.2665 87.2259 82.6665C85.9993 84.3199 84.7726 85.9465 83.5459 87.5999C83.2259 87.9999 83.9193 88.3999 84.2393 87.9999Z" fill="#565510"/>
</g>
</g>
<g id="Group_77">
<g id="Group_78">
<path id="Vector_57" d="M87.2261 83.1467C87.2794 89.68 87.3061 96.2133 87.3594 102.747C87.3594 103.253 88.1594 103.253 88.1594 102.747C88.1061 96.2133 88.0794 89.68 88.0261 83.1467C88.0261 82.64 87.2261 82.64 87.2261 83.1467Z" fill="#565510"/>
</g>
</g>
<g id="Group_79">
<g id="Group_80">
<path id="Vector_58" d="M80.133 86.8266C82.3996 83.0933 84.693 79.3866 86.9597 75.6533C87.2263 75.2 86.533 74.8 86.2663 75.2533C83.9997 78.9866 81.7063 82.6933 79.4396 86.4266C79.173 86.8533 79.8663 87.28 80.133 86.8266Z" fill="#565510"/>
</g>
</g>
<g id="Group_81">
<g id="Group_82">
<path id="Vector_59" d="M87.3059 75.4667C88.9859 75.4667 90.6659 75.4667 92.3459 75.4667C92.8526 75.4667 92.8526 74.6667 92.3459 74.6667C90.6659 74.6667 88.9859 74.6667 87.3059 74.6667C86.7993 74.6667 86.7993 75.4667 87.3059 75.4667Z" fill="#565510"/>
</g>
</g>
<g id="Group_83">
<g id="Group_84">
<path id="Vector_60" d="M92.2664 75.8133C92.2664 84.6934 92.2664 93.5734 92.2664 102.453C92.2664 102.96 93.0664 102.96 93.0664 102.453C93.0664 93.5734 93.0664 84.6934 93.0664 75.8133C93.0664 75.3067 92.2664 75.3067 92.2664 75.8133Z" fill="#565510"/>
</g>
</g>
<g id="Group_85">
<g id="Group_86">
<path id="Vector_61" d="M87.5731 102.533C85.9198 102.533 84.2931 102.533 82.6398 102.533C82.1331 102.533 82.1331 103.333 82.6398 103.333C84.2931 103.333 85.9198 103.333 87.5731 103.333C88.0798 103.333 88.0798 102.533 87.5731 102.533Z" fill="#565510"/>
</g>
</g>
<g id="Group_87">
<g id="Group_88">
<path id="Vector_62" d="M81.7592 104.48C81.7592 105.387 81.7592 106.293 81.7592 107.173C81.7592 107.68 82.5592 107.68 82.5592 107.173C82.5592 106.267 82.5592 105.36 82.5592 104.48C82.5592 103.947 81.7592 103.947 81.7592 104.48Z" fill="#565510"/>
</g>
</g>
<g id="Group_89">
<g id="Group_90">
<path id="Vector_63" d="M82.88 108.4C87.28 108.4 91.6533 108.4 96.0533 108.4C96.56 108.4 96.56 107.6 96.0533 107.6C91.6533 107.6 87.28 107.6 82.88 107.6C82.3467 107.6 82.3467 108.4 82.88 108.4Z" fill="#565510"/>
</g>
</g>
<g id="Group_91">
<g id="Group_92">
<path id="Vector_64" d="M93.4399 103.333C94.8799 103.333 96.3466 103.333 97.7866 103.333C98.2933 103.333 98.2933 102.533 97.7866 102.533C96.3466 102.533 94.8799 102.533 93.4399 102.533C92.9333 102.533 92.9333 103.333 93.4399 103.333Z" fill="#565510"/>
</g>
</g>
<g id="Group_93">
<g id="Group_94">
<path id="Vector_65" d="M97.5197 104.24C97.5197 105.467 97.5197 106.667 97.5197 107.893C97.5197 108.4 98.3197 108.4 98.3197 107.893C98.3197 106.667 98.3197 105.467 98.3197 104.24C98.3197 103.733 97.5197 103.733 97.5197 104.24Z" fill="#565510"/>
</g>
</g>
<g id="Group_95">
<g id="Group_96">
<path id="Vector_66" d="M69.2537 82.4797C71.6004 81.6797 72.7203 79.2797 73.6803 77.173C74.907 74.453 75.7337 71.5997 76.187 68.6397C75.947 68.6664 75.707 68.693 75.467 68.7464C76.3203 70.693 78.587 71.1997 80.507 71.2797C83.0403 71.3597 85.4937 70.5864 87.5737 69.1464C88.0003 68.853 87.6003 68.1597 87.1737 68.453C85.4403 69.653 83.467 70.3997 81.3603 70.4797C79.4937 70.5597 77.0137 70.293 76.1603 68.373C76.027 68.0797 75.467 68.133 75.4403 68.4797C75.067 70.9064 74.4537 73.3064 73.547 75.5997C72.667 77.7597 71.4937 80.933 69.0937 81.7597C68.5603 81.8664 68.747 82.6397 69.2537 82.4797Z" fill="#565510"/>
</g>
</g>
<g id="Group_97">
<g id="Group_98">
<path id="Vector_67" d="M96.7199 118.213C99.8933 115.173 104.267 113.76 108.613 114.4C108.907 114.453 109.173 114.24 109.093 113.92C108.08 109.28 109.707 104.4 113.28 101.253C113.68 100.907 113.093 100.347 112.72 100.693C108.933 104.027 107.253 109.227 108.32 114.133C108.48 113.973 108.64 113.813 108.8 113.653C104.16 112.96 99.5199 114.427 96.1333 117.68C95.7599 118 96.3466 118.587 96.7199 118.213Z" fill="#565510"/>
</g>
</g>
<g id="Group_99">
<g id="Group_100">
<path id="Vector_68" d="M97.5199 68.2399C99.2532 71.7599 104.587 71.9733 107.92 71.4399C107.76 71.2799 107.6 71.1199 107.44 70.9599C105.76 75.5199 108.107 80.4266 112.667 82.0266C113.147 82.1866 113.36 81.4133 112.88 81.2533C108.693 79.7866 106.667 75.3066 108.187 71.1733C108.293 70.8533 107.973 70.6399 107.707 70.6933C104.72 71.1733 99.7599 71.0133 98.2132 67.8399C97.9732 67.3866 97.2799 67.7866 97.5199 68.2399Z" fill="#565510"/>
</g>
</g>
<g id="Group_101">
<g id="Group_102">
<path id="Vector_69" d="M68.2663 105.12C70.2663 105.307 71.173 108.16 71.333 109.84C71.493 111.52 71.0663 113.147 70.1863 114.56C69.9997 114.88 70.3997 115.36 70.7463 115.12C74.3197 112.4 77.9197 116.293 79.9997 118.933C80.3197 119.333 80.8797 118.773 80.5597 118.373C78.2663 115.467 74.213 111.493 70.3463 114.453C70.533 114.64 70.7197 114.827 70.9063 115.013C72.0797 113.093 72.4797 110.8 71.9463 108.613C71.5197 106.773 70.373 104.56 68.293 104.373C67.733 104.267 67.7597 105.067 68.2663 105.12Z" fill="#565510"/>
</g>
</g>
<g id="Group_103">
<g id="Group_104">
<path id="Vector_70" d="M73.1465 101.76C74.1331 103.867 75.0131 106.027 75.8398 108.213C76.0265 108.693 76.7998 108.48 76.6131 108C75.7865 105.76 74.8531 103.547 73.8398 101.36C73.6265 100.88 72.9331 101.28 73.1465 101.76Z" fill="#565510"/>
</g>
</g>
<g id="Group_105">
<g id="Group_106">
<path id="Vector_71" d="M76.2929 100.24C76.8795 102.533 77.6528 104.773 78.6128 106.933C78.8262 107.413 79.5195 106.987 79.3062 106.533C78.3728 104.427 77.6262 102.267 77.0662 100.027C76.9329 99.5199 76.1595 99.7333 76.2929 100.24Z" fill="#565510"/>
</g>
</g>
<g id="Group_107">
<g id="Group_108">
<path id="Vector_72" d="M72.6397 105.093C75.1197 104.133 77.5464 103.013 79.8664 101.733C80.3197 101.493 79.9197 100.8 79.4664 101.04C77.1997 102.293 74.8531 103.387 72.4264 104.32C71.9464 104.507 72.1597 105.28 72.6397 105.093Z" fill="#565510"/>
</g>
</g>
<g id="Group_109">
<g id="Group_110">
<path id="Vector_73" d="M74.1873 107.733C76.0807 106.72 78.0273 105.733 79.974 104.827C80.4273 104.613 80.0273 103.92 79.574 104.133C77.6273 105.067 75.7073 106.027 73.7873 107.04C73.334 107.28 73.734 107.973 74.1873 107.733Z" fill="#565510"/>
</g>
</g>
</g>
</g>
<g id="body_1">
<g id="leg_right">
<path id="Vector_74" d="M28.7736 69.7333C27.9736 69.5467 26.8269 69.3333 25.4403 69.12C20.6669 68.4533 14.1336 68.4267 13.8936 69.7067C13.7336 70.48 15.9469 71.44 18.9869 72.9067C22.7203 74.6933 27.9736 77.3867 34.2669 81.0933C35.2003 78.6133 36.1069 76.1333 37.0403 73.6533C36.8803 73.0933 36.3736 71.4667 34.8003 70.32C32.1603 68.4267 29.0136 69.6267 28.7736 69.7333Z" fill="#180E25"/>
<g id="Group_111">
<g id="Group_112">
<path id="Vector_75" d="M14.8536 70.1599C18.6669 70.0533 22.2136 71.6266 25.5469 73.3599C28.5869 74.9333 31.4136 76.8266 33.8403 79.2266C33.9203 79.3066 34.0803 79.1733 33.9736 79.0933C31.4136 76.5866 28.4269 74.6133 25.2269 72.9866C21.9736 71.3333 18.5336 69.8666 14.8269 69.9733C14.7469 69.9733 14.7469 70.1599 14.8536 70.1599Z" fill="#EFEEF0"/>
</g>
</g>
<g id="Group_113">
<g id="Group_114">
<path id="Vector_76" d="M24.2402 69.0933C24.8802 69.4933 25.3068 70.08 25.5202 70.8C25.5468 70.9333 25.7602 70.88 25.7068 70.7467C25.4935 69.9733 25.0135 69.3333 24.3468 68.9067C24.2402 68.8533 24.1335 69.0133 24.2402 69.0933Z" fill="#EFEEF0"/>
</g>
</g>
<g id="Group_115">
<g id="Group_116">
<path id="Vector_77" d="M25.601 69.2798C26.241 69.6265 26.6944 70.2132 26.8277 70.9332C26.8544 71.0665 27.041 71.0132 27.0144 70.8798C26.8544 70.1065 26.3744 69.4665 25.681 69.0932C25.5744 69.0398 25.4944 69.2265 25.601 69.2798Z" fill="#EFEEF0"/>
</g>
</g>
<g id="Group_117">
<g id="Group_118">
<path id="Vector_78" d="M27.0684 69.5997C27.495 69.9464 27.7617 70.4264 27.8417 70.9864C27.8684 71.1197 28.055 71.0664 28.0284 70.9331C27.9484 70.3464 27.655 69.8131 27.2017 69.4397C27.1217 69.3864 26.9617 69.5197 27.0684 69.5997Z" fill="#EFEEF0"/>
</g>
</g>
<path id="Vector_79" d="M28.4005 69.6532C29.2271 69.5999 30.3205 69.6266 31.5738 69.9199C34.2405 70.5866 35.9471 72.1866 36.6938 72.9866C37.7338 72.3732 38.7738 71.7599 39.8138 71.0932C45.5738 67.4932 49.4671 64.3732 51.4138 62.8532C54.5338 60.4266 59.1738 57.0666 65.5738 53.2266C66.0804 52.6132 67.8671 50.3999 67.4671 47.7332C66.9604 44.2399 63.0138 41.1999 57.8938 41.3866C57.3338 41.1732 56.3738 40.9066 55.2005 40.9866C54.9338 41.0132 53.7604 41.1199 52.1071 42.0532C50.9071 42.7466 50.2671 43.4399 48.7471 45.0132C45.2538 48.6399 45.6271 48.2399 45.3071 48.5599C43.2804 50.8266 41.9738 52.4532 40.4805 54.3199C35.2538 60.7732 34.5605 61.2266 31.5738 65.2266C30.1605 67.0932 29.0671 68.6666 28.4005 69.6532Z" fill="white"/>
<g id="Group_119">
<g id="Group_120">
<path id="Vector_80" d="M28.6399 69.2266C32.9866 63.8133 37.3066 58.3733 41.6799 52.96C43.7332 50.4 45.8666 47.8933 48.2132 45.5733C49.3866 44.4 50.6132 43.2533 51.9199 42.24C53.7599 40.8266 55.6532 40.9333 57.8399 41.44C57.9732 41.4666 58.0266 41.28 57.8932 41.2533C56.5066 40.9333 55.0132 40.6133 53.5999 41.0666C52.3732 41.4666 51.3599 42.4266 50.3999 43.28C47.6266 45.7066 45.1466 48.4266 42.7999 51.2533C37.9466 57.12 33.2266 63.1466 28.4532 69.0933C28.4266 69.2 28.5599 69.3333 28.6399 69.2266Z" fill="#180E25"/>
</g>
</g>
<g id="Group_121">
<g id="Group_122">
<path id="Vector_81" d="M37.2267 73.12C46.3467 66.4533 55.6 59.9733 65.0133 53.68C65.12 53.6 65.0133 53.44 64.9067 53.52C55.52 59.8133 46.24 66.2933 37.12 72.96C37.0133 73.0133 37.12 73.2 37.2267 73.12Z" fill="#180E25"/>
</g>
</g>
<g id="Group_123">
<g id="Group_124">
<path id="Vector_82" d="M28.4004 69.76C29.9204 69.7066 31.3871 69.8666 32.8004 70.48C34.0804 71.04 35.8404 71.8666 36.6138 73.04C36.6938 73.1466 36.8538 73.04 36.7738 72.9333C35.9738 71.7066 34.3471 70.96 33.0671 70.3733C31.5471 69.68 30.0271 69.4933 28.3738 69.5466C28.2671 69.5733 28.2671 69.76 28.4004 69.76Z" fill="#180E25"/>
</g>
</g>
</g>
<g id="leg_left">
<path id="Vector_83" d="M36.24 74.5867C35.3866 74.4 34.1333 74.1333 32.64 73.9467C27.4933 73.2267 20.48 73.2 20.1866 74.56C20.0266 75.3867 22.4 76.4267 25.6533 78C29.68 79.92 35.3333 82.8 42.1066 86.8C43.0933 84.1333 44.1066 81.4933 45.0933 78.8267C44.9333 78.2133 44.3733 76.48 42.6666 75.2533C39.8666 73.2 36.5066 74.48 36.24 74.5867Z" fill="#180E25"/>
<g id="Group_125">
<g id="Group_126">
<path id="Vector_84" d="M21.2536 75.04C25.307 74.9334 29.0936 76.5867 32.6403 78.4C35.947 80.1067 39.067 82.16 41.7336 84.7467C41.8136 84.8267 41.9736 84.6934 41.867 84.6134C39.0936 81.8934 35.8136 79.76 32.347 78.0267C28.8803 76.2934 25.2003 74.7467 21.2536 74.8534C21.1203 74.8534 21.1203 75.04 21.2536 75.04Z" fill="#EFEEF0"/>
</g>
</g>
<g id="Group_127">
<g id="Group_128">
<path id="Vector_85" d="M31.3595 73.8933C32.0262 74.32 32.5062 74.96 32.7462 75.7333C32.7728 75.8666 32.9862 75.8133 32.9328 75.68C32.6928 74.8533 32.1862 74.1866 31.4662 73.7066C31.3595 73.6533 31.2528 73.84 31.3595 73.8933Z" fill="#EFEEF0"/>
</g>
</g>
<g id="Group_129">
<g id="Group_130">
<path id="Vector_86" d="M32.8278 74.1067C33.5211 74.48 34.0011 75.1201 34.1611 75.8934C34.1878 76.0267 34.3745 75.9734 34.3478 75.8401C34.1878 75.0134 33.6545 74.32 32.9078 73.9467C32.8011 73.8667 32.6945 74.0534 32.8278 74.1067Z" fill="#EFEEF0"/>
</g>
</g>
<g id="Group_131">
<g id="Group_132">
<path id="Vector_87" d="M34.4008 74.4533C34.8808 74.8266 35.1475 75.36 35.2541 75.9466C35.2808 76.08 35.4675 76.0266 35.4408 75.8933C35.3608 75.2533 35.0408 74.6933 34.5341 74.2933C34.4541 74.2133 34.2941 74.3733 34.4008 74.4533Z" fill="#EFEEF0"/>
</g>
</g>
<path id="Vector_88" d="M68.7465 40.6133C68.0532 40.7466 67.0399 40.9866 65.8932 41.5466C64.5599 42.2133 63.6799 42.9866 63.2799 43.3333C57.6265 48.5333 53.8132 53.3333 53.8132 53.3333C48.1065 60.5599 47.8132 59.7599 38.4799 71.3333C37.4132 72.6399 36.5599 73.7333 35.9732 74.4533C36.7732 74.4799 37.9465 74.5599 39.2799 74.9333C40.1599 75.1733 41.2799 75.4933 42.5332 76.2933C43.1999 76.7199 44.2399 77.5199 45.1732 78.8799C50.6932 74.0799 56.3999 69.2799 62.2932 64.4266C67.1465 60.4266 71.9732 56.5599 76.7465 52.8266C77.6265 51.1999 77.7066 49.8666 77.6532 49.0666C77.4399 45.3599 73.8932 41.9199 68.7465 40.6133Z" fill="white"/>
<g id="Group_133">
<g id="Group_134">
<path id="Vector_89" d="M67.7605 40.7467C64.6139 41.6 62.3739 43.9467 60.2139 46.2667C57.3605 49.3067 54.5605 52.3733 51.7872 55.4933C46.3205 61.6533 41.0139 67.9733 35.8939 74.4267C35.8139 74.5333 35.9472 74.6667 36.0272 74.56C40.9339 68.3733 46.0005 62.2933 51.2272 56.3733C53.8139 53.44 56.4272 50.56 59.0939 47.68C61.5739 45.0133 64.1072 41.92 67.7605 40.9067C67.9472 40.88 67.8939 40.6933 67.7605 40.7467Z" fill="#180E25"/>
</g>
</g>
<g id="Group_135">
<g id="Group_136">
<path id="Vector_90" d="M76.0798 53.3068C65.6531 61.4401 55.4398 69.8134 45.4131 78.4534C45.3065 78.5334 45.4665 78.6668 45.5465 78.5868C55.5731 69.9468 65.7865 61.5734 76.2131 53.4401C76.3198 53.3601 76.1598 53.2268 76.0798 53.3068Z" fill="#180E25"/>
</g>
</g>
<g id="Group_137">
<g id="Group_138">
<path id="Vector_91" d="M36.2938 74.88C37.8405 74.3467 39.9738 75.12 41.3871 75.8133C42.8538 76.5067 44.1071 77.52 45.0405 78.88C45.1205 78.9867 45.2805 78.88 45.2005 78.7733C44.1871 77.28 42.7738 76.1867 41.1205 75.4667C39.7071 74.8533 37.7605 74.1867 36.2405 74.6933C36.1338 74.72 36.1871 74.9333 36.2938 74.88Z" fill="#180E25"/>
</g>
</g>
</g>
<g id="hand">
<path id="Vector_92" d="M108.693 56.5067C108.48 56.2401 108.213 55.8667 107.973 55.4134C107.84 55.1467 107.547 54.5867 107.307 53.7334C107.147 53.2001 107.173 53.0401 106.933 51.4667C106.933 51.4667 106.8 50.4267 106.507 49.0401C106.293 47.9201 106.16 47.4667 105.787 47.3067C105.52 47.2001 105.2 47.2534 104.96 47.3867C104.693 47.5467 104.533 47.8667 104.453 48.4801C104.373 49.0134 104.293 49.8401 104.453 50.9067C104.08 50.8801 103.573 50.8267 102.987 50.8267C100.96 50.7734 99.5467 50.7467 99.12 51.4667C99.0133 51.6534 98.8267 52.1334 99.3067 53.1201C99.2533 53.2001 98.9067 53.6534 99.0133 54.2667C99.0667 54.6667 99.28 54.9334 99.3867 55.0401C99.3333 55.2267 99.2 55.6534 99.3333 56.1867C99.4667 56.8001 99.84 57.1467 100 57.2801C100.187 57.6001 100.507 58.0267 101.04 58.3201C101.493 58.5601 101.733 58.5334 102.827 58.6934C103.813 58.8534 104.427 58.9334 105.093 59.2001C105.76 59.4667 106.24 59.8401 106.533 60.0801C106.693 59.5467 106.96 58.8001 107.44 58.0001C107.893 57.3334 108.32 56.8534 108.693 56.5067Z" fill="white"/>
<path id="Vector_93" d="M112.907 34.5866C113.52 34 114.4 33.2533 115.52 32.4266C116.4 31.7866 117.52 30.9866 119.12 30.2133C121.973 28.8266 123.92 28.7466 124.4 28.72C125.52 28.6933 126.213 28.8533 126.8 29.2C127.467 29.5733 127.867 30.1066 128.16 30.5066C128.827 31.3866 129.093 32.1866 129.2 32.5066C129.893 34.56 129.387 32.4533 131.173 37.3866C131.92 39.44 132.4 40.8 133.013 42.8C133.573 44.5866 134.133 46.56 134.667 48.7466C135.12 50.6133 135.627 52.8533 136.107 55.44C136.213 56.0533 136.533 57.8933 136.853 60.2933C137.333 63.8133 137.04 62.9333 137.413 65.52C137.573 66.6666 137.733 67.4933 137.547 68.6666C137.52 68.9066 137.333 69.8933 136.72 71.0666C136.4 71.68 135.147 73.9733 132.507 75.0666C131.04 75.6533 129.653 75.68 128.987 75.68C128.693 75.68 128.213 75.68 127.547 75.6C124.933 75.28 122.613 74.2666 121.947 73.9466C120.933 73.4933 118.907 72.48 116.32 70.56C113.707 68.6133 113.227 67.76 109.333 64.4266C108.053 63.36 107.013 62.5066 106.32 61.9733C106.347 61.3333 106.453 60.4 106.88 59.36C107.413 58 108.187 57.0933 108.693 56.5866C110.587 57.4133 112.56 58.24 114.64 59.04C118.133 60.4 121.493 61.5466 124.693 62.5333C124.4 61.5466 123.973 60.16 123.413 58.48C121.253 51.9733 119.013 47.1466 117.387 43.6533C116.293 41.2 114.8 38.1066 112.907 34.5866Z" fill="#6A3EA1"/>
<g id="Group_139">
<g id="Group_140">
<path id="Vector_94" d="M115.2 32.8266C116.88 31.44 118.8 30.32 120.88 29.6266C123.226 28.8266 126.16 28.1066 127.92 30.3466C129.226 32 129.866 34.2666 130.613 36.1866C131.386 38.1866 132.106 40.2133 132.746 42.24C135.333 50.4 136.906 58.8533 137.466 67.3866C137.466 67.52 137.68 67.52 137.68 67.3866C137.04 57.68 135.093 48.08 131.84 38.9066C131.066 36.72 130.24 34.56 129.306 32.4533C128.613 30.8533 127.733 29.1733 125.893 28.72C124 28.2666 121.733 29.04 120 29.7333C118.213 30.4533 116.56 31.4666 115.066 32.6933C114.96 32.7466 115.093 32.9066 115.2 32.8266Z" fill="#180E25"/>
</g>
</g>
<g id="Group_141">
<g id="Group_142">
<path id="Vector_95" d="M117.226 43.4399C120.08 49.1999 122.453 55.1732 124.346 61.3066C124.373 61.4399 124.586 61.3866 124.533 61.2532C122.64 55.0932 120.24 49.1199 117.386 43.3332C117.36 43.2266 117.173 43.3332 117.226 43.4399Z" fill="#180E25"/>
</g>
</g>
<g id="Group_143">
<g id="Group_144">
<path id="Vector_96" d="M108.8 56.6132C113.76 58.7199 118.8 60.6132 123.92 62.2666C124.054 62.3199 124.107 62.1066 123.974 62.0799C118.88 60.4266 113.84 58.5332 108.907 56.4532C108.774 56.3999 108.667 56.5599 108.8 56.6132Z" fill="#180E25"/>
</g>
</g>
<g id="Group_145">
<g id="Group_146">
<path id="Vector_97" d="M108.586 56.5599C107.12 57.8133 106.32 59.6266 106.426 61.5466C106.426 61.6799 106.64 61.6799 106.64 61.5466C106.56 59.6533 107.306 57.9199 108.746 56.6933C108.826 56.6133 108.693 56.4799 108.586 56.5599Z" fill="#180E25"/>
</g>
</g>
<g id="Group_147">
<g id="Group_148">
<path id="Vector_98" d="M106.826 62.0534C111.573 66.8001 116.586 71.8934 122.933 74.4267C125.84 75.5734 129.226 76.2667 132.266 75.2001C135.36 74.1334 136.8 71.6267 137.653 68.6401C137.68 68.5067 137.493 68.4534 137.466 68.5867C136.453 72.1601 134.426 74.8267 130.56 75.4134C127.28 75.9201 123.893 74.8001 121.013 73.3334C115.626 70.5867 111.226 66.1334 106.986 61.9201C106.88 61.8134 106.72 61.9467 106.826 62.0534Z" fill="#180E25"/>
</g>
</g>
<g id="Group_149">
<g id="Group_150">
<path id="Vector_99" d="M104.587 51.1999C104.56 50.0799 104.133 47.8933 105.333 47.3066C105.44 47.2533 105.36 47.0666 105.227 47.1466C103.867 47.8399 104.373 49.9999 104.373 51.2266C104.373 51.3333 104.587 51.3333 104.587 51.1999Z" fill="#180E25"/>
</g>
</g>
<g id="Group_151">
<g id="Group_152">
<path id="Vector_100" d="M105.813 47.6532C107.333 50.3199 106.346 53.8132 108.453 56.2132C108.533 56.3199 108.666 56.1599 108.586 56.0799C106.506 53.7066 107.466 50.2132 105.973 47.5466C105.92 47.4399 105.76 47.5466 105.813 47.6532Z" fill="#180E25"/>
</g>
</g>
<g id="Group_153">
<g id="Group_154">
<path id="Vector_101" d="M99.4132 51.4133C100.133 51.04 101.12 51.04 101.92 50.96C102.613 50.9066 103.307 50.9066 104 50.96C104.133 50.96 104.133 50.7733 104 50.7466C103.067 50.6666 102.16 50.72 101.253 50.8266C100.613 50.9066 99.9199 50.9333 99.3332 51.2266C99.1999 51.28 99.3065 51.4666 99.4132 51.4133Z" fill="#180E25"/>
</g>
</g>
<g id="Group_155">
<g id="Group_156">
<path id="Vector_102" d="M99.2533 53.2C99.7333 53.7867 100.347 54.2133 101.04 54.4533C101.173 54.5067 101.227 54.2933 101.093 54.2667C100.4 54.0267 99.84 53.6267 99.3867 53.0667C99.3067 52.96 99.1733 53.0933 99.2533 53.2Z" fill="#180E25"/>
</g>
</g>
<g id="Group_157">
<g id="Group_158">
<path id="Vector_103" d="M99.0927 54.6133C99.3327 55.52 100.533 56.1066 101.333 56.4266C101.439 56.48 101.493 56.2933 101.386 56.24C100.666 55.9466 99.5193 55.3866 99.306 54.5866C99.2527 54.4266 99.0393 54.48 99.0927 54.6133Z" fill="#180E25"/>
</g>
</g>
<g id="Group_159">
<g id="Group_160">
<path id="Vector_104" d="M99.4132 56.64C99.8666 57.2 100.293 58.0266 100.96 58.3733C101.627 58.6933 102.507 58.7466 103.227 58.8266C103.36 58.8266 103.36 58.64 103.227 58.6133C102.507 58.5333 101.28 58.48 100.72 57.9466C100.267 57.5467 99.9466 56.96 99.5732 56.5067C99.4666 56.4 99.3332 56.56 99.4132 56.64Z" fill="#180E25"/>
</g>
</g>
<g id="Group_161">
<g id="Group_162">
<path id="Vector_105" d="M104.16 58.9866C105.013 59.1732 105.813 59.5732 106.48 60.1332C106.586 60.2132 106.72 60.0799 106.613 59.9999C105.92 59.4132 105.093 59.0132 104.213 58.7999C104.08 58.7732 104.026 58.9599 104.16 58.9866Z" fill="#180E25"/>
</g>
</g>
</g>
</g>
</g>
</svg>
