<svg width="32" height="32" viewBox="0 0 32 32" fill="none" xmlns="http://www.w3.org/2000/svg">
<g id="Icon/Outline/cog">
<g id="Icon">
<path d="M13.7662 5.76551C14.3347 3.42362 17.6653 3.42362 18.2338 5.76551C18.6011 7.27833 20.3343 7.99626 21.6638 7.18623C23.7217 5.93228 26.0768 8.28737 24.8229 10.3453C24.0128 11.6748 24.7308 13.408 26.2436 13.7753C28.5855 14.3438 28.5855 17.6744 26.2436 18.2429C24.7308 18.6102 24.0128 20.3434 24.8229 21.6728C26.0768 23.7308 23.7217 26.0859 21.6638 24.832C20.3343 24.0219 18.6011 24.7399 18.2338 26.2527C17.6653 28.5946 14.3347 28.5946 13.7662 26.2527C13.3989 24.7399 11.6657 24.0219 10.3362 24.832C8.27827 26.0859 5.92319 23.7308 7.17713 21.6728C7.98717 20.3434 7.26924 18.6102 5.75641 18.2429C3.41453 17.6744 3.41453 14.3438 5.75641 13.7753C7.26924 13.408 7.98717 11.6748 7.17713 10.3453C5.92319 8.28736 8.27827 5.93228 10.3362 7.18623C11.6657 7.99626 13.3989 7.27833 13.7662 5.76551Z" stroke="#827D89" stroke-width="2" stroke-linecap="round" stroke-linejoin="round"/>
<path d="M20 16.0091C20 18.2182 18.2091 20.0091 16 20.0091C13.7909 20.0091 12 18.2182 12 16.0091C12 13.8 13.7909 12.0091 16 12.0091C18.2091 12.0091 20 13.8 20 16.0091Z" stroke="#827D89" stroke-width="2" stroke-linecap="round" stroke-linejoin="round"/>
</g>
</g>
</svg>
